<?xml version="1.0" encoding="utf-8"?>
<svg width="210.0739501953125px" height="129.2px" viewBox="144.96302490234376 10.400000000000006 210.0739501953125 129.2" style="background: rgb(255, 255, 255);" preserveAspectRatio="xMidYMid" xmlns="http://www.w3.org/2000/svg">
  <defs>
    <linearGradient id="editing-glowing-gradient" x1="0.8940053768033609" x2="0.10599462319663905" y1="0.1921692623371708" y2="0.8078307376628292">
      <stop offset="0" stop-color="#040404"/>
      <stop offset="1" stop-color="none"/>
    </linearGradient>
    <filter id="editing-glowing" x="-100%" y="-100%" width="300%" height="300%">
      <feGaussianBlur in="SourceGraphic" result="blur" stdDeviation="18.5"/>
      <feMerge>
        <feMergeNode in="blur"/>
        <feMergeNode in="SourceGraphic"/>
      </feMerge>
    </filter>
  </defs>
  <g filter="url(#editing-glowing)" transform="matrix(1, 0, 0, 1, -24.361864, 1.916102)">
    <g transform="translate(182.75545012950897, 103.95999908447266)">
      <path d="M57.60-43.46L57.60-43.46L57.60-43.46Q57.60-45.70 55.55-47.68L55.55-47.68L55.55-47.68Q52.61-50.50 47.42-50.50L47.42-50.50L47.42-50.50Q42.88-50.50 37.38-48.51L37.38-48.51L37.38-48.51Q34.50-47.49 32.38-45.70L32.38-45.70L32.38-45.70Q29.12-42.88 29.12-40.06L29.12-40.06L29.12-40.06Q29.12-36.29 33.92-33.28L33.92-33.28L33.92-33.28Q35.71-32.19 41.12-29.73L41.12-29.73L41.12-29.73Q46.53-27.26 49.02-25.73L49.02-25.73L49.02-25.73Q52.80-23.42 54.24-20.80L54.24-20.80L54.24-20.80Q55.68-18.18 55.68-15.94L55.68-15.94L55.68-15.94Q55.68-12.74 53.57-9.41L53.57-9.41L53.57-9.41Q49.86-3.46 42.69 0.83L42.69 0.83L42.69 0.83Q34.43 5.82 22.78 5.82L22.78 5.82L22.78 5.82Q11.58 5.82 4.99 0.13L4.99 0.13L4.99 0.13Q-0.13-4.22-0.13-11.07L-0.13-11.07L-0.13-11.07Q-0.13-15.42 3.04-20.67L3.04-20.67L3.04-20.67Q6.21-25.92 10.82-28.10L10.82-28.10L10.82-28.10Q11.78-28.48 12.26-28.35L12.26-28.35L12.26-28.35Q12.74-28.22 11.46-27.14L11.46-27.14L11.46-27.14Q8.70-24.96 7.04-22.34L7.04-22.34L7.04-22.34Q3.46-16.70 3.46-10.11L3.46-10.11L3.46-10.11Q3.46-5.76 5.89-2.50L5.89-2.50L5.89-2.50Q10.24 3.33 20.99 4.10L20.99 4.10L20.99 4.10Q22.21 4.22 24.61 4.22L24.61 4.22L24.61 4.22Q27.01 4.22 31.14 3.36L31.14 3.36L31.14 3.36Q35.26 2.50 39.10 0.51L39.10 0.51L39.10 0.51Q47.36-3.84 49.79-10.75L49.79-10.75L49.79-10.75Q50.56-12.80 50.56-14.72L50.56-14.72L50.56-14.72Q50.56-19.07 46.66-22.40L46.66-22.40L46.66-22.40Q44.54-24.06 38.05-26.85L38.05-26.85L38.05-26.85Q31.55-29.63 29.31-31.10L29.31-31.10L29.31-31.10Q24.38-34.43 24.38-38.98L24.38-38.98L24.38-38.98Q24.38-42.94 28.80-46.72L28.80-46.72L28.80-46.72Q35.14-52.10 46.72-52.10L46.72-52.10L46.72-52.10Q52.16-52.10 55.58-50.46L55.58-50.46L55.58-50.46Q59.01-48.83 59.78-45.57L59.78-45.57L59.78-45.57Q59.90-44.93 59.90-44.29L59.90-44.29L59.90-44.29Q59.90-41.79 57.60-39.81L57.60-39.81L57.60-39.81Q56-38.53 53.31-37.76L53.31-37.76L53.31-37.76Q52.16-37.44 52.03-38.02L52.03-38.02L52.03-38.02Q51.90-38.85 53.63-39.04L53.63-39.04L53.63-39.04Q56.70-39.42 57.41-42.11L57.41-42.11L57.41-42.11Q57.60-42.82 57.60-43.46ZM72.96-22.40L72.96-22.40L72.96-22.40Q77.63-22.40 77.63-16.51L77.63-16.51L77.63-16.51Q77.63-13.82 76.22-10.75L76.22-10.75L76.22-10.75Q74.43-6.59 70.85-3.20L70.85-3.20L70.85-3.20Q71.68-1.60 73.86-1.60L73.86-1.60L73.86-1.60Q75.58-1.60 77.12-3.33L77.12-3.33L77.12-3.33Q79.04-5.31 79.87-6.82L79.87-6.82L79.87-6.82Q80.70-8.32 81.09-9.02L81.09-9.02L81.09-9.02Q81.47-9.73 82.08-11.04L82.08-11.04L82.08-11.04Q82.69-12.35 82.82-12.64L82.82-12.64L82.82-12.64Q82.94-12.93 83.26-12.93L83.26-12.93L83.26-12.93Q83.90-12.99 83.90-12.48L83.90-12.48L83.90-12.48Q83.90-12.29 83.78-12.03L83.78-12.03L83.39-11.14L83.39-11.14Q83.01-10.24 82.82-9.86L82.82-9.86L82.82-9.86Q82.62-9.47 82.14-8.48L82.14-8.48L82.14-8.48Q81.66-7.49 81.31-6.91L81.31-6.91L81.31-6.91Q80.96-6.34 80.35-5.38L80.35-5.38L80.35-5.38Q79.74-4.42 79.26-3.84L79.26-3.84L79.26-3.84Q78.78-3.26 78.08-2.56L78.08-2.56L78.08-2.56Q77.38-1.86 76.74-1.47L76.74-1.47L76.74-1.47Q75.14-0.51 73.73-0.51L73.73-0.51L73.73-0.51Q71.10-0.51 69.63-2.18L69.63-2.18L69.63-2.18Q66.69 0 64.19 0L64.19 0L64.19 0Q59.52 0 59.52-5.89L59.52-5.89L59.52-5.89Q59.52-8.58 60.93-11.65L60.93-11.65L60.93-11.65Q62.85-16.13 66.34-19.26L66.34-19.26L66.34-19.26Q69.82-22.40 72.96-22.40ZM73.66-20.42L73.66-20.42L73.66-20.42Q71.94-20.42 69.57-18.11L69.57-18.11L69.57-18.11Q67.20-15.81 65.34-11.84L65.34-11.84L65.34-11.84Q63.10-7.23 63.10-4.29L63.10-4.29L63.10-4.29Q63.10-1.34 65.34-1.34L65.34-1.34L65.34-1.34Q66.94-1.34 68.93-3.07L68.93-3.07L68.93-3.07Q67.90-4.54 67.90-6.21L67.90-6.21L67.90-6.21Q68.03-8.96 70.14-8.96L70.14-8.96L70.14-8.96Q70.98-8.96 71.52-8.38L71.52-8.38L71.52-8.38Q72.06-7.81 72.06-7.33L72.06-7.33L72.06-7.33Q72.06-6.85 71.94-6.34L71.94-6.34L71.94-6.34Q73.02-7.94 74.43-10.88L74.43-10.88L74.43-10.88Q76.03-14.14 76.03-17.28L76.03-17.28L76.03-17.28Q76.03-20.42 73.66-20.42ZM113.02-20.99L113.02-20.99L113.02-20.99Q105.22-7.10 105.22-3.07L105.22-3.07L105.22-3.07Q105.22-1.28 106.43-1.28L106.43-1.28L106.43-1.28Q107.97-1.28 109.95-3.58L109.95-3.58L109.95-3.58Q112.96-7.23 115.20-12.35L115.20-12.35L115.20-12.35Q115.58-13.25 115.97-13.06L115.97-13.06L115.97-13.06Q116.35-12.86 116.35-12.54L116.35-12.54L116.35-12.54Q116.35-12.22 115.71-10.94L115.71-10.94L115.71-10.94Q115.07-9.66 114.69-8.90L114.69-8.90L114.69-8.90Q114.30-8.13 112.99-5.95L112.99-5.95L112.99-5.95Q111.68-3.78 110.75-2.75L110.75-2.75L110.75-2.75Q109.82-1.73 108.38-0.74L108.38-0.74L108.38-0.74Q106.94 0.26 105.12 0.26L105.12 0.26L105.12 0.26Q103.30 0.26 102.02-1.54L102.02-1.54L102.02-1.54Q101.44-2.37 101.44-3.81L101.44-3.81L101.44-3.81Q101.44-5.25 102.08-7.30L102.08-7.30L102.08-7.30Q102.72-9.34 105.60-13.95L105.60-13.95L105.60-13.95Q106.30-15.10 106.30-15.78L106.30-15.78L106.30-15.78Q106.30-16.45 105.25-16.45L105.25-16.45L105.25-16.45Q104.19-16.45 101.44-13.89L101.44-13.89L101.44-13.89Q98.69-11.33 95.65-6.98L95.65-6.98L95.65-6.98Q92.61-2.62 92.03 0L92.03 0L92.03 0Q90.94 0 90.43-0.90L90.43-0.90L90.43-0.90Q89.92-1.79 89.92-2.43L89.92-2.43L89.92-2.43Q89.92-5.06 93.44-12.42L93.44-12.42L93.44-12.42Q94.59-14.85 94.66-15.71L94.66-15.71L94.66-15.71Q94.72-16.58 94.43-16.61L94.43-16.61L94.43-16.61Q94.14-16.64 93.63-16.38L93.63-16.38L93.63-16.38Q92.48-15.81 90.11-13.57L90.11-13.57L90.11-13.57Q85.63-9.47 81.28-1.09L81.28-1.09L81.28-1.09Q80.96-0.38 80.48-0.22L80.48-0.22L80.48-0.22Q80-0.06 78.59 0L78.59 0L78.59 0Q77.18 0.06 76.74 0.32L76.74 0.32L76.74 0.32Q77.89-1.92 80.77-8.06L80.77-8.06L80.77-8.06Q85.95-19.07 87.68-20.74L87.68-20.74L87.68-20.74Q88.45-21.50 89.79-21.50L89.79-21.50L89.79-21.50Q90.05-21.50 91.10-21.31L91.10-21.31L91.10-21.31Q92.16-21.12 92.67-21.25L92.67-21.25L92.67-21.25Q90.30-19.97 84.93-9.22L84.93-9.22L84.93-9.22Q87.94-12.93 89.25-14.08L89.25-14.08L89.25-14.08Q90.56-15.23 91.20-15.81L91.20-15.81L91.20-15.81Q91.84-16.38 92.19-16.70L92.19-16.70L92.19-16.70Q92.54-17.02 93.22-17.63L93.22-17.63L93.22-17.63Q93.89-18.24 94.24-18.53L94.24-18.53L94.24-18.53Q94.59-18.82 95.23-19.33L95.23-19.33L95.23-19.33Q95.87-19.84 96.22-20L96.22-20L96.22-20Q96.58-20.16 97.18-20.54L97.18-20.54L97.18-20.54Q97.79-20.93 98.08-20.93L98.08-20.93L98.08-20.93Q98.37-20.93 98.88-21.09L98.88-21.09L98.88-21.09Q99.39-21.25 99.58-20.99L99.58-20.99L99.58-20.99Q100.86-20.48 100.86-19.39L100.86-19.39L100.86-19.39Q100.86-18.43 98.69-14.46L98.69-14.46L98.69-14.46Q96.51-10.50 95.87-9.22L95.87-9.22L95.87-9.22Q98.69-12.74 101.25-15.01L101.25-15.01L101.25-15.01Q103.81-17.28 107.30-19.20L107.30-19.20L107.30-19.20Q110.78-21.12 112.38-21.12L112.38-21.12L112.38-21.12Q112.77-21.12 113.02-20.99ZM134.66-17.34L134.66-17.34Q133.50-16.19 131.39-12.13L131.39-12.13L131.39-12.13Q129.28-8.06 128.86-6.05L128.86-6.05L128.86-6.05Q128.45-4.03 128.45-2.78L128.45-2.78L128.45-2.78Q128.45-1.54 129.41-1.54L129.41-1.54L129.41-1.54Q130.62-1.54 132.42-3.78L132.42-3.78L132.42-3.78Q135.04-7.04 137.60-12.29L137.60-12.29L137.60-12.29Q137.86-12.86 138.18-12.93L138.18-12.93L138.18-12.93Q138.69-13.12 138.69-12.54L138.69-12.54L138.69-12.54Q138.69-12.22 138.50-11.78L138.50-11.78L138.50-11.78Q132.61 0.13 128.58 0.13L128.58 0.13L128.58 0.13Q126.72 0.13 125.57-1.66L125.57-1.66L125.57-1.66Q124.99-2.62 124.99-4.22L124.99-4.22L124.99-4.22Q124.99-5.82 125.63-8.13L125.63-8.13L125.63-8.13Q120.51 0.13 116.80 0.13L116.80 0.13L116.80 0.13Q115.78 0.13 114.94-0.51L114.94-0.51L114.94-0.51Q113.02-1.86 113.02-5.12L113.02-5.12L113.02-5.12Q113.02-11.39 118.46-17.86L118.46-17.86L118.46-17.86Q121.54-21.44 126.02-22.53L126.02-22.53L126.02-22.53Q127.23-22.85 128.32-22.85L128.32-22.85L128.32-22.85Q131.26-22.85 133.31-20.80L133.31-20.80L133.31-20.80Q133.95-20.10 133.70-19.46L133.70-19.46L133.70-19.46Q133.44-18.82 132.61-18.94L132.61-18.94L132.61-18.94Q131.90-21.25 129.54-21.25L129.54-21.25L129.54-21.25Q126.78-21.25 122.75-16.90L122.75-16.90L122.75-16.90Q120.45-14.34 118.46-10.88L118.46-10.88L118.46-10.88Q115.97-6.72 115.97-4.22L115.97-4.22L115.97-4.22Q115.97-1.73 117.57-1.73L117.57-1.73L117.57-1.73Q121.41-1.73 127.62-13.50L127.62-13.50L127.62-13.50Q128.83-15.87 129.66-16.74L129.66-16.74L129.66-16.74Q130.50-17.60 131.78-17.60L131.78-17.60L131.78-17.60Q132.03-17.60 133.09-17.41L133.09-17.41L133.09-17.41Q134.14-17.22 134.66-17.34L134.66-17.34Z" fill="url(#editing-glowing-gradient)"/>
    </g>
  </g>
  <style>text {
  font-size: 64px;
  font-family: Arial Black;
  dominant-baseline: central;
  text-anchor: middle;
}</style>
  <path class="st0" d="M 328.613 85.384 C 328.654 85.335 328.654 85.19 328.613 85.141 C 328.613 85.092 328.572 85.092 328.572 85.043 C 328.572 85.043 328.613 85.043 328.613 84.994 C 328.817 84.849 328.654 84.411 328.451 84.557 C 328.409 84.605 328.368 84.605 328.328 84.605 C 326.372 81.977 320.177 83.486 317.853 83.826 C 311.78 84.654 305.911 87.233 301.184 91.808 C 300.084 92.295 298.983 92.879 297.965 93.511 C 297.883 93.56 297.802 93.56 297.72 93.609 C 300.898 90.3 303.915 86.747 306.93 83.291 C 307.583 83.583 308.398 83.583 309.05 83.534 C 309.824 83.437 310.64 83.243 311.373 82.854 C 311.454 82.999 311.536 83.145 311.659 83.243 C 312.433 84.022 313.941 83.048 314.348 82.123 C 314.715 81.247 314.063 80.468 313.37 80.322 C 313.003 80.274 312.677 80.322 312.352 80.468 C 312.31 80.419 312.229 80.419 312.147 80.468 C 311.943 80.663 311.78 80.857 311.617 81.101 C 311.577 81.15 311.536 81.247 311.496 81.296 C 311.333 81.685 311.21 82.075 311.291 82.464 C 310.028 83.145 308.683 83.048 307.339 82.804 C 307.746 82.318 308.153 81.88 308.561 81.393 C 309.824 79.982 310.924 78.473 311.984 76.867 C 311.943 77.012 312.025 77.305 312.229 77.208 C 312.473 77.061 312.718 77.012 312.962 76.915 C 313.818 76.867 314.715 76.672 315.611 76.429 C 315.571 77.694 316.183 79.106 317.283 79.348 C 317.405 79.398 317.405 79.203 317.365 79.154 C 317.12 78.716 316.753 78.473 316.467 78.083 C 316.101 77.597 315.897 77.012 315.856 76.38 C 316.386 76.234 316.916 76.088 317.446 75.893 C 317.813 76.721 319.198 77.159 319.932 76.964 C 319.932 77.012 319.932 77.061 319.973 77.061 C 319.973 77.305 320.014 77.548 320.095 77.743 C 320.136 77.986 320.217 78.279 320.38 78.521 C 320.91 79.348 321.97 79.544 322.785 79.348 C 323.6 79.154 324.455 78.18 324.374 77.11 C 324.293 76.088 323.437 75.699 322.745 75.504 C 321.97 75.309 320.951 75.455 320.34 76.137 C 320.217 76.282 320.136 76.429 320.095 76.575 C 319.728 76.332 319.239 76.332 318.791 76.185 C 318.424 76.088 318.179 75.893 317.895 75.65 C 318.465 75.407 318.995 75.164 319.565 74.92 C 319.565 74.969 319.565 74.969 319.565 75.017 C 319.605 75.114 319.769 75.164 319.81 75.017 C 319.81 74.92 319.851 74.823 319.851 74.725 C 320.87 74.19 321.847 73.606 322.745 72.925 C 323.315 74.336 325.353 74.823 326.697 73.655 C 327.227 73.508 327.716 73.266 328.124 72.973 C 328.613 72.633 329.184 72.146 329.632 71.562 C 329.714 71.513 329.795 71.465 329.836 71.416 C 330.977 70.734 333.504 68.691 331.833 67.035 C 331.547 66.744 331.099 66.597 330.61 66.597 C 330.04 66.111 329.224 66.014 328.409 66.159 C 326.249 66.257 324.252 68.495 323.029 70.589 C 322.703 71.172 322.54 71.708 322.54 72.146 L 322.499 72.195 C 322.459 72.292 322.418 72.389 322.459 72.487 C 321.644 73.07 320.788 73.508 319.932 73.898 C 319.973 73.46 320.014 73.022 320.095 72.584 C 320.217 72.048 320.38 71.562 320.584 71.124 C 320.829 71.172 321.114 71.172 321.317 71.124 C 321.644 71.075 321.929 70.88 322.092 70.54 C 322.377 69.956 322.133 69.177 321.644 68.885 C 321.522 68.788 321.399 68.788 321.236 68.788 C 321.317 68.642 321.154 68.398 321.033 68.495 C 320.87 68.642 320.624 68.836 320.421 69.129 L 320.38 69.177 C 320.298 69.274 320.258 69.371 320.217 69.469 C 319.973 69.907 319.851 70.394 320.095 70.832 C 320.136 70.88 320.177 70.978 320.258 71.027 C 319.769 71.951 319.402 73.07 319.402 74.141 C 317.202 75.066 314.837 75.65 312.596 76.575 C 312.596 76.526 312.596 76.477 312.555 76.429 C 312.515 76.332 312.392 76.234 312.31 76.185 C 313.126 74.969 313.859 73.655 314.593 72.34 C 314.593 72.34 314.593 72.34 314.634 72.292 C 314.919 71.805 315.204 71.319 315.49 70.783 C 315.693 70.394 315.897 70.004 316.101 69.615 C 317.772 68.739 319.565 67.62 321.033 66.208 C 322.377 66.5 323.885 66.208 325.067 65.381 C 325.23 65.235 325.108 64.894 324.945 65.04 C 323.845 65.819 322.622 65.917 321.399 65.867 C 322.215 65.04 322.908 64.116 323.478 63.045 C 323.518 63.045 323.559 63.093 323.6 63.093 C 323.804 63.19 323.926 62.801 323.763 62.704 C 323.722 62.704 323.722 62.655 323.682 62.655 C 323.722 62.51 323.804 62.412 323.845 62.266 C 324.008 62.461 324.211 62.558 324.374 62.558 C 324.66 62.704 325.027 62.752 325.353 62.752 C 327.105 62.558 328.287 59.833 328.613 58.08 C 328.939 56.377 328.451 54.333 326.779 54.284 C 326.657 54.284 326.534 54.284 326.412 54.284 C 325.964 54.284 325.597 54.528 325.271 54.82 C 324.211 55.696 323.396 57.35 322.948 58.47 C 322.418 59.833 322.133 61.828 323.233 62.801 C 322.499 64.019 321.562 64.943 320.584 65.722 C 320.503 65.722 320.461 65.77 320.461 65.819 C 319.158 66.841 317.731 67.717 316.427 68.933 C 317.242 67.182 317.895 65.235 317.895 63.288 C 318.139 63.337 318.383 63.288 318.668 63.19 C 320.054 62.51 319.891 59.93 319.647 58.567 C 319.361 57.009 318.75 54.917 317.446 54.235 C 316.06 53.505 315.245 56.037 315.123 57.205 C 314.878 59.492 315.734 62.85 317.446 64.116 L 317.486 64.116 C 317.12 66.841 315.774 69.274 314.511 71.61 C 314.348 70.88 314.063 70.199 313.982 69.469 C 313.9 68.885 313.941 68.253 313.982 67.62 C 314.145 67.62 314.308 67.62 314.471 67.571 C 314.552 67.523 314.593 67.474 314.593 67.376 C 314.674 67.327 314.797 67.23 314.837 67.133 C 315.082 66.744 315.164 66.159 315.082 65.624 C 315.082 65.235 315.001 64.846 314.878 64.505 C 314.755 64.213 314.552 64.019 314.308 63.92 L 314.267 63.872 C 314.308 63.823 314.267 63.678 314.185 63.678 C 313.452 63.726 312.799 64.991 312.718 65.77 C 312.636 66.5 312.962 67.182 313.492 67.474 C 313.533 67.474 313.533 67.474 313.574 67.523 C 313.615 67.571 313.696 67.571 313.737 67.62 C 313.533 69.177 313.492 70.978 314.267 72.098 C 314.226 72.195 314.145 72.34 314.104 72.437 C 312.066 76.282 309.417 79.544 306.646 82.658 C 306.523 82.61 306.401 82.61 306.32 82.561 C 306.237 82.561 306.197 82.658 306.237 82.755 C 306.279 82.804 306.36 82.854 306.401 82.902 C 306.36 82.951 306.279 83.048 306.237 83.096 C 304.322 85.287 302.406 87.379 300.491 89.472 C 302.203 87.379 303.344 84.8 304.159 81.977 L 304.2 81.928 C 304.281 82.025 304.363 82.025 304.445 81.977 C 307.216 78.473 308.072 73.849 308.316 69.177 C 308.439 66.695 308.358 64.164 307.99 61.682 C 307.623 58.859 305.993 56.767 305.504 54.041 C 305.464 53.846 305.26 53.846 305.178 53.992 C 303.222 58.713 302.652 63.678 302.652 68.933 C 302.652 72.973 302.325 77.791 303.426 81.734 C 302.733 84.167 301.796 86.503 300.491 88.791 C 299.88 89.715 299.268 90.64 298.616 91.565 C 295.03 95.312 291.361 98.914 287.449 102.321 C 287.286 102.467 287.449 102.759 287.612 102.661 C 290.75 100.374 293.725 97.697 296.537 94.826 C 296.619 94.777 296.66 94.728 296.741 94.679 C 297.393 94.437 298.046 94.144 298.698 93.901 C 298.698 93.949 298.739 93.999 298.779 93.999 C 299.105 93.901 299.431 93.804 299.717 93.707 C 305.26 93.366 310.843 94.679 316.346 93.511 C 320.991 92.539 325.516 89.618 328.613 85.384 Z M 313.452 81.101 C 313.696 81.198 313.9 81.393 313.859 81.734 C 313.696 82.464 312.596 83.048 312.025 82.804 C 311.984 82.804 311.943 82.755 311.903 82.707 C 312.555 82.755 313.085 82.318 313.452 81.636 C 313.533 81.442 313.452 81.247 313.289 81.198 C 313.329 81.198 313.37 81.15 313.452 81.101 Z M 311.699 82.025 C 311.699 81.977 311.699 81.928 311.74 81.88 C 311.903 81.734 312.025 81.49 312.189 81.345 C 312.392 81.15 312.718 81.052 313.003 81.052 C 313.003 81.052 313.003 81.052 313.044 81.052 C 312.515 81.345 312.107 81.685 311.699 82.025 Z M 323.111 77.694 C 323.192 77.548 323.233 77.402 323.274 77.208 C 323.315 77.208 323.315 77.208 323.315 77.208 C 323.478 77.256 323.559 77.061 323.518 76.915 C 323.926 77.5 323.233 78.327 322.826 78.521 C 322.499 78.716 322.133 78.716 321.766 78.619 C 322.336 78.57 322.826 78.23 323.111 77.694 Z M 321.522 77.694 C 321.929 77.743 322.336 77.645 322.703 77.451 C 322.499 77.743 322.173 77.889 321.889 77.986 C 321.644 78.035 321.196 77.986 320.87 77.841 C 321.033 77.791 321.196 77.694 321.359 77.645 C 321.399 77.645 321.48 77.694 321.522 77.694 Z M 322.092 76.332 C 322.215 76.332 322.377 76.332 322.54 76.38 C 321.889 76.575 321.317 77.012 320.747 77.5 C 320.788 77.208 320.91 76.915 321.114 76.623 L 321.114 76.575 C 321.399 76.38 321.807 76.332 322.092 76.332 Z M 325.23 71.124 C 325.475 70.832 325.76 70.589 326.086 70.442 C 326.249 70.394 326.453 70.394 326.616 70.442 C 326.739 70.491 326.82 70.345 326.86 70.199 L 326.902 70.199 C 326.576 71.075 325.801 71.708 325.027 71.562 C 325.067 71.367 325.148 71.269 325.23 71.124 Z M 324.415 73.655 C 323.845 73.655 323.478 73.46 323.315 73.168 C 323.559 73.266 323.845 73.314 324.13 73.363 C 324.252 73.46 324.415 73.557 324.537 73.655 C 324.497 73.655 324.455 73.655 324.415 73.655 Z M 326.983 71.172 C 327.227 70.832 327.39 70.394 327.431 69.956 C 327.431 69.81 327.349 69.663 327.227 69.663 C 327.023 69.663 326.82 69.712 326.616 69.762 C 327.676 69.274 328.776 68.933 329.754 68.885 C 329.224 70.004 328.165 70.734 326.983 71.172 Z M 328.246 71.513 C 328.817 71.172 329.306 70.734 329.754 70.248 C 329.632 70.491 329.469 70.734 329.306 70.93 C 328.858 71.221 328.491 71.416 328.246 71.513 Z M 330.488 67.474 C 330.814 67.717 331.017 68.106 331.099 68.642 C 331.14 68.885 331.384 68.788 331.384 68.593 C 331.344 68.203 331.262 67.912 331.18 67.62 C 331.222 67.62 331.262 67.668 331.303 67.668 C 332.282 68.398 331.589 69.323 330.57 70.151 C 330.691 69.859 330.773 69.566 330.814 69.274 C 330.896 68.544 330.691 67.96 330.366 67.571 C 330.407 67.474 330.447 67.474 330.488 67.474 Z M 329.469 67.62 C 329.632 67.717 329.754 67.814 329.877 67.96 C 329.102 68.009 328.246 68.203 327.39 68.495 C 328.124 68.155 328.817 67.814 329.469 67.62 Z M 326.29 68.301 C 326.697 67.814 327.186 67.425 327.758 67.23 C 327.92 67.182 328.083 67.133 328.246 67.085 C 328.287 67.133 328.368 67.133 328.451 67.182 C 327.716 67.425 326.983 67.814 326.29 68.301 Z M 321.073 70.297 C 321.196 70.151 320.951 69.956 320.87 70.101 C 320.788 70.199 320.706 70.297 320.666 70.442 C 320.624 70.151 320.747 69.859 320.991 69.663 C 321.114 69.615 321.236 69.566 321.359 69.615 C 321.562 69.712 321.726 70.004 321.644 70.248 C 321.562 70.54 321.196 70.637 320.91 70.637 C 320.951 70.54 320.991 70.394 321.073 70.297 Z M 328.002 58.518 C 327.635 59.93 326.779 61.633 325.516 62.072 C 325.964 61.584 326.372 60.903 326.657 60.319 C 326.697 60.319 326.739 60.319 326.739 60.271 C 327.798 59.103 328.124 57.205 327.676 55.599 C 327.635 55.452 327.595 55.355 327.513 55.209 C 328.246 55.793 328.205 57.594 328.002 58.518 Z M 324.252 57.35 C 324.986 56.231 325.841 55.355 326.494 55.111 C 326.534 55.111 326.534 55.111 326.576 55.111 C 326.902 55.258 327.146 55.647 327.227 56.279 C 327.309 56.815 327.309 57.399 327.227 57.935 C 327.146 57.107 326.739 56.474 325.883 56.474 C 325.271 56.523 324.741 56.864 324.252 57.35 Z M 323.763 59.297 C 324.089 58.275 325.148 57.205 326.086 57.253 C 326.576 57.302 326.697 57.691 326.616 58.227 L 326.616 58.177 C 326.576 58.032 326.412 57.935 326.29 57.983 C 325.557 58.177 324.171 59.297 323.641 60.513 C 323.641 60.076 323.641 59.638 323.763 59.297 Z M 322.989 60.465 C 323.029 61.147 323.315 61.731 323.722 62.169 C 323.641 62.315 323.6 62.461 323.518 62.607 C 322.989 62.072 322.866 61.292 322.989 60.465 Z M 324.252 61.78 C 324.211 61.682 324.171 61.536 324.171 61.342 C 324.171 60.806 324.619 60.222 324.904 59.881 C 325.19 59.541 326.29 58.275 326.167 59.151 C 326.167 59.248 326.209 59.345 326.29 59.395 C 325.923 60.271 325.353 61.195 325.19 61.39 C 325.067 61.536 324.619 62.022 324.334 61.925 C 324.334 61.877 324.293 61.828 324.252 61.78 Z M 318.995 61.974 C 318.872 62.266 318.709 62.51 318.587 62.607 C 319.158 61.487 319.321 60.076 319.117 58.81 C 319.321 59.833 319.402 61.001 318.995 61.974 Z M 318.424 58.421 C 318.424 58.421 318.465 58.421 318.465 58.373 C 318.465 58.421 318.465 58.421 318.505 58.47 C 318.75 59.735 318.668 61.147 318.098 62.217 C 317.283 61.195 317.202 58.956 318.424 58.421 Z M 315.774 59.103 C 315.611 58.08 315.734 54.431 317.283 55.014 C 317.772 55.209 318.139 55.793 318.424 56.474 C 318.016 55.744 317.446 55.258 316.672 55.89 C 315.938 56.474 315.693 57.837 315.774 59.248 C 315.774 59.2 315.774 59.151 315.774 59.103 Z M 316.753 56.815 C 317.446 55.452 318.058 56.961 318.342 57.935 C 318.302 57.935 318.302 57.935 318.261 57.935 C 316.672 58.08 316.672 60.465 317.283 62.022 C 317.079 61.731 316.875 61.342 316.753 61.049 C 316.264 59.686 316.06 58.129 316.753 56.815 Z M 316.549 62.169 C 316.834 62.704 317.202 63.093 317.568 63.288 C 317.568 63.434 317.568 63.58 317.527 63.726 C 317.16 63.337 316.834 62.801 316.549 62.169 Z M 314.104 67.085 C 314.145 66.89 314.145 66.646 314.185 66.452 C 314.226 66.306 314.022 66.208 313.982 66.355 C 313.982 66.452 313.941 66.549 313.941 66.646 C 313.941 66.597 313.941 66.597 313.941 66.549 C 313.9 66.111 314.063 65.673 314.308 65.332 C 314.348 65.284 314.348 65.284 314.348 65.235 C 314.389 65.235 314.43 65.332 314.511 65.429 C 314.674 65.867 314.674 66.452 314.471 66.841 C 314.348 67.035 314.226 67.085 314.104 67.085 Z M 303.018 70.248 C 302.936 65.526 303.262 60.903 304.608 56.474 C 304.811 55.841 304.974 55.55 305.137 55.452 C 304.118 59.541 304.281 64.31 303.833 68.544 C 303.426 72.681 303.874 76.818 303.67 80.955 C 303.629 81.052 303.629 81.198 303.589 81.296 C 303.018 77.597 303.099 73.898 303.018 70.248 Z M 305.341 55.599 C 305.627 57.156 305.911 58.713 306.116 60.222 C 305.464 66.646 305.382 72.973 304.159 78.911 C 304.2 75.942 303.996 72.973 304.118 70.004 C 304.241 67.474 304.608 64.943 304.811 62.412 C 304.974 60.124 304.893 57.886 305.341 55.599 Z M 306.197 61.049 C 307.053 67.814 306.93 74.336 304.526 80.857 C 306.034 74.482 305.911 67.085 306.197 61.049 Z M 305.83 55.988 C 306.156 56.718 306.441 57.886 306.686 58.421 C 307.786 60.903 307.909 63.92 307.949 66.646 C 308.031 71.708 307.297 76.429 304.934 80.566 C 308.072 73.266 307.542 63.726 305.83 55.988 Z M 327.227 84.8 C 327.309 84.946 327.309 85.043 327.309 85.238 C 326.902 85.432 326.534 85.627 326.127 85.773 C 326.494 85.432 326.86 85.141 327.227 84.8 Z M 323.6 85.335 C 323.029 85.335 322.499 85.384 321.929 85.432 C 323.478 85.043 325.19 84.459 326.779 84.702 C 326.127 85.287 325.475 85.773 324.782 86.211 C 323.518 86.552 322.215 86.747 320.87 86.941 C 317.731 87.379 314.634 88.206 311.536 88.791 C 310.436 88.986 309.335 89.229 308.235 89.472 C 310.354 88.645 312.515 87.866 314.755 87.233 C 315.49 87.038 316.223 86.844 316.957 86.649 C 319.158 86.309 321.399 86.017 323.641 85.579 C 323.722 85.579 323.722 85.287 323.6 85.335 Z M 325.679 84.07 C 325.964 84.119 326.249 84.167 326.453 84.216 C 324.089 83.826 320.951 84.946 318.505 85.725 C 313.37 86.358 308.276 87.72 303.589 90.348 C 303.466 90.445 303.548 90.689 303.67 90.592 C 306.483 89.034 309.335 88.109 312.229 87.477 C 309.458 88.304 306.646 89.277 304.037 90.64 C 303.344 90.883 302.652 91.127 301.999 91.419 C 308.561 85.627 317.609 83.145 325.679 84.07 Z M 301.673 92.539 C 301.103 92.636 300.491 92.781 299.88 92.928 C 300.45 92.636 300.98 92.392 301.551 92.149 C 301.51 92.246 301.591 92.343 301.673 92.295 C 302.489 91.905 303.344 91.516 304.159 91.175 C 307.297 90.154 310.517 89.472 313.778 88.839 C 316.509 88.304 319.565 88.109 322.499 87.428 C 319.932 88.645 317.16 89.229 314.308 89.569 C 310.068 90.104 305.871 91.272 301.754 92.587 C 301.796 92.539 301.754 92.539 301.673 92.539 Z M 322.908 90.104 C 320.298 91.857 317.365 92.879 314.43 93.317 C 311.454 93.804 308.479 93.366 305.464 93.122 C 305.911 93.074 306.36 92.976 306.809 92.928 C 310.314 92.49 313.778 92.003 317.283 91.371 C 319.035 91.03 321.359 90.64 323.355 89.765 C 323.192 89.91 323.029 90.056 322.908 90.104 Z M 315.327 91.224 C 312.473 91.808 309.58 92.101 306.727 92.539 C 305.748 92.684 304.73 92.879 303.752 93.025 C 303.059 92.976 302.366 93.025 301.633 93.025 L 301.591 93.025 C 301.551 93.025 301.51 93.025 301.469 93.025 C 306.156 91.613 310.843 90.397 315.611 89.862 C 318.709 89.472 321.766 88.645 324.455 86.941 C 325.393 86.649 326.29 86.309 327.146 85.87 C 327.065 86.065 326.942 86.309 326.779 86.552 C 324.008 90.007 319.158 90.494 315.327 91.224 Z" style="fill: rgb(9, 129, 120);"/>
</svg>