<?xml version="1.0" encoding="utf-8"?>
<svg width="189.904443359375px" height="117.2px" viewBox="155.0477783203125 16.4 189.904443359375 117.2" style="background: rgb(255, 255, 255);" preserveAspectRatio="xMidYMid" xmlns="http://www.w3.org/2000/svg">
  <defs>
    <linearGradient id="editing-glowing-gradient" x1="0.8940053768033609" x2="0.10599462319663905" y1="0.1921692623371708" y2="0.8078307376628292">
      <stop offset="0" stop-color="#040404"/>
      <stop offset="1" stop-color="none"/>
    </linearGradient>
    <filter id="editing-glowing" x="-100%" y="-100%" width="300%" height="300%">
      <feGaussianBlur in="SourceGraphic" result="blur" stdDeviation="18.5"/>
      <feMerge>
        <feMergeNode in="blur"/>
        <feMergeNode in="SourceGraphic"/>
      </feMerge>
    </filter>
  </defs>
  <g filter="url(#editing-glowing)" transform="matrix(1, 0, 0, 1, -26.320339, -8.938983)">
    <g transform="translate(190.2290681451559, 100.79500007629395)">
      <path d="M51.30-38.70L51.30-38.70L51.30-38.70Q51.30-40.70 49.48-42.47L49.48-42.47L49.48-42.47Q46.85-44.97 42.24-44.97L42.24-44.97L42.24-44.97Q38.19-44.97 33.29-43.21L33.29-43.21L33.29-43.21Q30.72-42.29 28.84-40.70L28.84-40.70L28.84-40.70Q25.94-38.19 25.94-35.68L25.94-35.68L25.94-35.68Q25.94-32.32 30.21-29.64L30.21-29.64L30.21-29.64Q31.81-28.67 36.62-26.48L36.62-26.48L36.62-26.48Q41.44-24.28 43.66-22.91L43.66-22.91L43.66-22.91Q47.02-20.86 48.31-18.53L48.31-18.53L48.31-18.53Q49.59-16.19 49.59-14.19L49.59-14.19L49.59-14.19Q49.59-11.34 47.71-8.38L47.71-8.38L47.71-8.38Q44.40-3.08 38.02 0.74L38.02 0.74L38.02 0.74Q30.67 5.19 20.29 5.19L20.29 5.19L20.29 5.19Q10.32 5.19 4.45 0.11L4.45 0.11L4.45 0.11Q-0.11-3.76-0.11-9.86L-0.11-9.86L-0.11-9.86Q-0.11-13.74 2.71-18.41L2.71-18.41L2.71-18.41Q5.53-23.09 9.63-25.02L9.63-25.02L9.63-25.02Q10.49-25.37 10.92-25.25L10.92-25.25L10.92-25.25Q11.34-25.14 10.20-24.17L10.20-24.17L10.20-24.17Q7.75-22.23 6.27-19.89L6.27-19.89L6.27-19.89Q3.08-14.88 3.08-9.01L3.08-9.01L3.08-9.01Q3.08-5.13 5.24-2.22L5.24-2.22L5.24-2.22Q9.12 2.96 18.70 3.65L18.70 3.65L18.70 3.65Q19.78 3.76 21.92 3.76L21.92 3.76L21.92 3.76Q24.05 3.76 27.73 2.99L27.73 2.99L27.73 2.99Q31.41 2.22 34.83 0.46L34.83 0.46L34.83 0.46Q42.18-3.42 44.35-9.58L44.35-9.58L44.35-9.58Q45.03-11.40 45.03-13.11L45.03-13.11L45.03-13.11Q45.03-16.99 41.55-19.95L41.55-19.95L41.55-19.95Q39.67-21.43 33.89-23.91L33.89-23.91L33.89-23.91Q28.10-26.39 26.11-27.70L26.11-27.70L26.11-27.70Q21.72-30.67 21.72-34.71L21.72-34.71L21.72-34.71Q21.72-38.25 25.65-41.61L25.65-41.61L25.65-41.61Q31.29-46.40 41.61-46.40L41.61-46.40L41.61-46.40Q46.45-46.40 49.50-44.94L49.50-44.94L49.50-44.94Q52.55-43.49 53.24-40.58L53.24-40.58L53.24-40.58Q53.35-40.01 53.35-39.44L53.35-39.44L53.35-39.44Q53.35-37.22 51.30-35.45L51.30-35.45L51.30-35.45Q49.88-34.31 47.48-33.63L47.48-33.63L47.48-33.63Q46.45-33.34 46.34-33.86L46.34-33.86L46.34-33.86Q46.23-34.60 47.77-34.77L47.77-34.77L47.77-34.77Q50.50-35.11 51.13-37.51L51.13-37.51L51.13-37.51Q51.30-38.13 51.30-38.70ZM64.98-19.95L64.98-19.95L64.98-19.95Q69.14-19.95 69.14-14.71L69.14-14.71L69.14-14.71Q69.14-12.31 67.89-9.58L67.89-9.58L67.89-9.58Q66.29-5.87 63.10-2.85L63.10-2.85L63.10-2.85Q63.84-1.43 65.78-1.43L65.78-1.43L65.78-1.43Q67.32-1.43 68.69-2.96L68.69-2.96L68.69-2.96Q70.39-4.73 71.14-6.07L71.14-6.07L71.14-6.07Q71.88-7.41 72.22-8.04L72.22-8.04L72.22-8.04Q72.56-8.66 73.10-9.83L73.10-9.83L73.10-9.83Q73.64-11.00 73.76-11.26L73.76-11.26L73.76-11.26Q73.87-11.51 74.16-11.51L74.16-11.51L74.16-11.51Q74.73-11.57 74.73-11.12L74.73-11.12L74.73-11.12Q74.73-10.94 74.61-10.72L74.61-10.72L74.27-9.92L74.27-9.92Q73.93-9.12 73.76-8.78L73.76-8.78L73.76-8.78Q73.59-8.44 73.16-7.55L73.16-7.55L73.16-7.55Q72.73-6.67 72.42-6.16L72.42-6.16L72.42-6.16Q72.11-5.64 71.56-4.79L71.56-4.79L71.56-4.79Q71.02-3.93 70.59-3.42L70.59-3.42L70.59-3.42Q70.17-2.91 69.54-2.28L69.54-2.28L69.54-2.28Q68.91-1.65 68.34-1.31L68.34-1.31L68.34-1.31Q66.92-0.46 65.66-0.46L65.66-0.46L65.66-0.46Q63.33-0.46 62.02-1.94L62.02-1.94L62.02-1.94Q59.39 0 57.17 0L57.17 0L57.17 0Q53.01 0 53.01-5.24L53.01-5.24L53.01-5.24Q53.01-7.64 54.26-10.37L54.26-10.37L54.26-10.37Q55.97-14.36 59.08-17.16L59.08-17.16L59.08-17.16Q62.19-19.95 64.98-19.95ZM65.61-18.18L65.61-18.18L65.61-18.18Q64.07-18.18 61.96-16.13L61.96-16.13L61.96-16.13Q59.85-14.08 58.20-10.54L58.20-10.54L58.20-10.54Q56.20-6.44 56.20-3.82L56.20-3.82L56.20-3.82Q56.20-1.20 58.20-1.20L58.20-1.20L58.20-1.20Q59.62-1.20 61.39-2.74L61.39-2.74L61.39-2.74Q60.48-4.05 60.48-5.53L60.48-5.53L60.48-5.53Q60.59-7.98 62.47-7.98L62.47-7.98L62.47-7.98Q63.21-7.98 63.70-7.47L63.70-7.47L63.70-7.47Q64.18-6.95 64.18-6.53L64.18-6.53L64.18-6.53Q64.18-6.10 64.07-5.64L64.07-5.64L64.07-5.64Q65.04-7.07 66.29-9.69L66.29-9.69L66.29-9.69Q67.72-12.60 67.72-15.39L67.72-15.39L67.72-15.39Q67.72-18.18 65.61-18.18ZM100.66-18.70L100.66-18.70L100.66-18.70Q93.71-6.33 93.71-2.74L93.71-2.74L93.71-2.74Q93.71-1.14 94.79-1.14L94.79-1.14L94.79-1.14Q96.16-1.14 97.93-3.19L97.93-3.19L97.93-3.19Q100.61-6.44 102.60-11.00L102.60-11.00L102.60-11.00Q102.94-11.80 103.28-11.63L103.28-11.63L103.28-11.63Q103.63-11.46 103.63-11.17L103.63-11.17L103.63-11.17Q103.63-10.89 103.06-9.75L103.06-9.75L103.06-9.75Q102.49-8.61 102.14-7.92L102.14-7.92L102.14-7.92Q101.80-7.24 100.63-5.30L100.63-5.30L100.63-5.30Q99.47-3.36 98.64-2.45L98.64-2.45L98.64-2.45Q97.81-1.54 96.53-0.66L96.53-0.66L96.53-0.66Q95.25 0.23 93.62 0.23L93.62 0.23L93.62 0.23Q92.00 0.23 90.86-1.37L90.86-1.37L90.86-1.37Q90.34-2.11 90.34-3.39L90.34-3.39L90.34-3.39Q90.34-4.67 90.91-6.50L90.91-6.50L90.91-6.50Q91.48-8.32 94.05-12.43L94.05-12.43L94.05-12.43Q94.68-13.45 94.68-14.05L94.68-14.05L94.68-14.05Q94.68-14.65 93.74-14.65L93.74-14.65L93.74-14.65Q92.80-14.65 90.34-12.37L90.34-12.37L90.34-12.37Q87.89-10.09 85.19-6.21L85.19-6.21L85.19-6.21Q82.48-2.34 81.97 0L81.97 0L81.97 0Q81.00 0 80.54-0.80L80.54-0.80L80.54-0.80Q80.08-1.60 80.08-2.17L80.08-2.17L80.08-2.17Q80.08-4.50 83.22-11.06L83.22-11.06L83.22-11.06Q84.25-13.22 84.30-13.99L84.30-13.99L84.30-13.99Q84.36-14.76 84.10-14.79L84.10-14.79L84.10-14.79Q83.85-14.82 83.39-14.59L83.39-14.59L83.39-14.59Q82.36-14.08 80.26-12.08L80.26-12.08L80.26-12.08Q76.27-8.44 72.39-0.97L72.39-0.97L72.39-0.97Q72.11-0.34 71.68-0.20L71.68-0.20L71.68-0.20Q71.25-0.06 70.00 0L70.00 0L70.00 0Q68.74 0.06 68.34 0.29L68.34 0.29L68.34 0.29Q69.37-1.71 71.93-7.18L71.93-7.18L71.93-7.18Q76.55-16.99 78.09-18.47L78.09-18.47L78.09-18.47Q78.77-19.15 79.97-19.15L79.97-19.15L79.97-19.15Q80.20-19.15 81.14-18.98L81.14-18.98L81.14-18.98Q82.08-18.81 82.54-18.92L82.54-18.92L82.54-18.92Q80.43-17.78 75.64-8.21L75.64-8.21L75.64-8.21Q78.32-11.51 79.49-12.54L79.49-12.54L79.49-12.54Q80.66-13.57 81.22-14.08L81.22-14.08L81.22-14.08Q81.80-14.59 82.11-14.88L82.11-14.88L82.11-14.88Q82.42-15.16 83.02-15.70L83.02-15.70L83.02-15.70Q83.62-16.25 83.93-16.50L83.93-16.50L83.93-16.50Q84.25-16.76 84.82-17.21L84.82-17.21L84.82-17.21Q85.39-17.67 85.70-17.81L85.70-17.81L85.70-17.81Q86.01-17.96 86.55-18.30L86.55-18.30L86.55-18.30Q87.10-18.64 87.35-18.64L87.35-18.64L87.35-18.64Q87.61-18.64 88.06-18.78L88.06-18.78L88.06-18.78Q88.52-18.92 88.69-18.70L88.69-18.70L88.69-18.70Q89.83-18.24 89.83-17.27L89.83-17.27L89.83-17.27Q89.83-16.42 87.89-12.88L87.89-12.88L87.89-12.88Q85.96-9.35 85.39-8.21L85.39-8.21L85.39-8.21Q87.89-11.34 90.17-13.37L90.17-13.37L90.17-13.37Q92.45-15.39 95.56-17.10L95.56-17.10L95.56-17.10Q98.67-18.81 100.09-18.81L100.09-18.81L100.09-18.81Q100.43-18.81 100.66-18.70ZM119.93-15.45L119.93-15.45Q118.90-14.42 117.02-10.80L117.02-10.80L117.02-10.80Q115.14-7.18 114.77-5.39L114.77-5.39L114.77-5.39Q114.40-3.59 114.40-2.48L114.40-2.48L114.40-2.48Q114.40-1.37 115.25-1.37L115.25-1.37L115.25-1.37Q116.34-1.37 117.93-3.36L117.93-3.36L117.93-3.36Q120.27-6.27 122.55-10.94L122.55-10.94L122.55-10.94Q122.78-11.46 123.06-11.51L123.06-11.51L123.06-11.51Q123.52-11.69 123.52-11.17L123.52-11.17L123.52-11.17Q123.52-10.89 123.35-10.49L123.35-10.49L123.35-10.49Q118.10 0.11 114.51 0.11L114.51 0.11L114.51 0.11Q112.86 0.11 111.83-1.48L111.83-1.48L111.83-1.48Q111.32-2.34 111.32-3.76L111.32-3.76L111.32-3.76Q111.32-5.19 111.89-7.24L111.89-7.24L111.89-7.24Q107.33 0.11 104.03 0.11L104.03 0.11L104.03 0.11Q103.11 0.11 102.37-0.46L102.37-0.46L102.37-0.46Q100.66-1.65 100.66-4.56L100.66-4.56L100.66-4.56Q100.66-10.15 105.51-15.90L105.51-15.90L105.51-15.90Q108.24-19.10 112.23-20.06L112.23-20.06L112.23-20.06Q113.32-20.35 114.28-20.35L114.28-20.35L114.28-20.35Q116.91-20.35 118.73-18.53L118.73-18.53L118.73-18.53Q119.30-17.90 119.07-17.33L119.07-17.33L119.07-17.33Q118.84-16.76 118.10-16.87L118.10-16.87L118.10-16.87Q117.48-18.92 115.37-18.92L115.37-18.92L115.37-18.92Q112.92-18.92 109.33-15.05L109.33-15.05L109.33-15.05Q107.27-12.77 105.51-9.69L105.51-9.69L105.51-9.69Q103.28-5.99 103.28-3.76L103.28-3.76L103.28-3.76Q103.28-1.54 104.71-1.54L104.71-1.54L104.71-1.54Q108.13-1.54 113.66-12.03L113.66-12.03L113.66-12.03Q114.74-14.14 115.48-14.91L115.48-14.91L115.48-14.91Q116.22-15.68 117.36-15.68L117.36-15.68L117.36-15.68Q117.59-15.68 118.53-15.50L118.53-15.50L118.53-15.50Q119.47-15.33 119.93-15.45L119.93-15.45Z" fill="url(#editing-glowing-gradient)"/>
    </g>
  </g>
  <style>text {
  font-size: 64px;
  font-family: Arial Black;
  dominant-baseline: central;
  text-anchor: middle;
}</style>
  <path class="st0" d="M 317.782 73.747 C 317.819 73.708 317.819 73.591 317.782 73.552 C 317.782 73.512 317.744 73.512 317.744 73.473 C 317.744 73.473 317.782 73.473 317.782 73.434 C 317.969 73.317 317.819 72.965 317.632 73.083 C 317.594 73.122 317.557 73.122 317.519 73.122 C 315.72 71.012 310.021 72.223 307.884 72.497 C 302.298 73.161 296.9 75.232 292.551 78.904 C 291.539 79.295 290.527 79.764 289.59 80.272 C 289.515 80.311 289.44 80.311 289.365 80.35 C 292.289 77.693 295.063 74.841 297.837 72.067 C 298.437 72.301 299.187 72.301 299.787 72.262 C 300.499 72.184 301.249 72.028 301.924 71.715 C 301.999 71.832 302.074 71.95 302.186 72.028 C 302.898 72.653 304.285 71.871 304.66 71.129 C 304.998 70.426 304.398 69.801 303.761 69.683 C 303.423 69.644 303.123 69.683 302.823 69.801 C 302.786 69.762 302.711 69.762 302.636 69.801 C 302.448 69.957 302.298 70.113 302.149 70.309 C 302.111 70.348 302.074 70.426 302.036 70.465 C 301.886 70.777 301.774 71.09 301.849 71.403 C 300.686 71.95 299.449 71.871 298.212 71.676 C 298.587 71.285 298.962 70.934 299.337 70.543 C 300.499 69.41 301.511 68.199 302.486 66.909 C 302.448 67.027 302.523 67.261 302.711 67.183 C 302.936 67.066 303.161 67.027 303.386 66.948 C 304.173 66.909 304.998 66.753 305.823 66.558 C 305.785 67.574 306.347 68.707 307.36 68.902 C 307.472 68.941 307.472 68.785 307.435 68.746 C 307.21 68.394 306.872 68.199 306.61 67.886 C 306.272 67.495 306.085 67.027 306.047 66.519 C 306.535 66.401 307.022 66.284 307.51 66.128 C 307.847 66.792 309.122 67.144 309.796 66.988 C 309.796 67.027 309.796 67.066 309.834 67.066 C 309.834 67.261 309.871 67.456 309.946 67.613 C 309.984 67.808 310.059 68.042 310.209 68.238 C 310.696 68.902 311.671 69.058 312.421 68.902 C 313.17 68.746 313.958 67.964 313.883 67.105 C 313.808 66.284 313.02 65.972 312.383 65.815 C 311.671 65.659 310.734 65.776 310.171 66.323 C 310.059 66.441 309.984 66.558 309.946 66.675 C 309.609 66.48 309.159 66.48 308.747 66.362 C 308.409 66.284 308.184 66.128 307.922 65.933 C 308.447 65.737 308.934 65.542 309.459 65.346 C 309.459 65.386 309.459 65.386 309.459 65.425 C 309.496 65.503 309.646 65.542 309.684 65.425 C 309.684 65.346 309.721 65.268 309.721 65.19 C 310.659 64.76 311.558 64.292 312.383 63.745 C 312.908 64.878 314.782 65.268 316.02 64.331 C 316.507 64.213 316.957 64.018 317.332 63.784 C 317.782 63.51 318.307 63.119 318.719 62.651 C 318.794 62.611 318.869 62.572 318.906 62.533 C 319.956 61.986 322.28 60.345 320.743 59.017 C 320.481 58.782 320.069 58.665 319.619 58.665 C 319.094 58.275 318.344 58.196 317.594 58.314 C 315.607 58.392 313.77 60.189 312.646 61.869 C 312.346 62.338 312.196 62.768 312.196 63.119 L 312.158 63.158 C 312.121 63.237 312.083 63.315 312.121 63.393 C 311.371 63.862 310.584 64.213 309.796 64.526 C 309.834 64.174 309.871 63.823 309.946 63.471 C 310.059 63.041 310.209 62.651 310.396 62.299 C 310.621 62.338 310.884 62.338 311.071 62.299 C 311.371 62.26 311.633 62.104 311.783 61.83 C 312.046 61.361 311.821 60.736 311.371 60.502 C 311.258 60.423 311.146 60.423 310.996 60.423 C 311.071 60.306 310.921 60.111 310.809 60.189 C 310.659 60.306 310.434 60.463 310.246 60.697 L 310.209 60.736 C 310.134 60.814 310.096 60.892 310.059 60.97 C 309.834 61.322 309.721 61.713 309.946 62.064 C 309.984 62.104 310.021 62.182 310.096 62.221 C 309.646 62.963 309.309 63.862 309.309 64.721 C 307.285 65.464 305.11 65.933 303.048 66.675 C 303.048 66.636 303.048 66.597 303.011 66.558 C 302.973 66.48 302.861 66.401 302.786 66.362 C 303.536 65.386 304.21 64.331 304.885 63.276 C 304.885 63.276 304.885 63.276 304.923 63.237 C 305.185 62.846 305.448 62.455 305.71 62.025 C 305.897 61.713 306.085 61.4 306.272 61.088 C 307.809 60.384 309.459 59.486 310.809 58.353 C 312.046 58.587 313.433 58.353 314.52 57.688 C 314.67 57.571 314.558 57.298 314.408 57.415 C 313.395 58.04 312.271 58.118 311.146 58.079 C 311.896 57.415 312.533 56.673 313.058 55.813 C 313.095 55.813 313.133 55.852 313.17 55.852 C 313.358 55.93 313.47 55.618 313.32 55.54 C 313.283 55.54 313.283 55.5 313.245 55.5 C 313.283 55.383 313.358 55.305 313.395 55.188 C 313.545 55.344 313.733 55.422 313.883 55.422 C 314.145 55.54 314.483 55.579 314.782 55.579 C 316.395 55.422 317.482 53.234 317.782 51.828 C 318.082 50.46 317.632 48.819 316.095 48.78 C 315.982 48.78 315.87 48.78 315.757 48.78 C 315.345 48.78 315.007 48.975 314.708 49.21 C 313.733 49.913 312.983 51.242 312.571 52.14 C 312.083 53.234 311.821 54.836 312.833 55.618 C 312.158 56.594 311.296 57.337 310.396 57.962 C 310.321 57.962 310.284 58.001 310.284 58.04 C 309.084 58.861 307.772 59.564 306.572 60.541 C 307.322 59.134 307.922 57.571 307.922 56.008 C 308.147 56.047 308.372 56.008 308.634 55.93 C 309.909 55.383 309.759 53.312 309.534 52.218 C 309.272 50.968 308.709 49.288 307.51 48.741 C 306.235 48.155 305.485 50.187 305.373 51.124 C 305.148 52.961 305.935 55.657 307.51 56.673 L 307.547 56.673 C 307.21 58.861 305.972 60.814 304.81 62.69 C 304.66 62.104 304.398 61.557 304.323 60.97 C 304.248 60.502 304.285 59.994 304.323 59.486 C 304.473 59.486 304.623 59.486 304.773 59.447 C 304.848 59.408 304.885 59.369 304.885 59.29 C 304.96 59.251 305.073 59.173 305.11 59.095 C 305.335 58.782 305.41 58.314 305.335 57.884 C 305.335 57.571 305.26 57.259 305.148 56.985 C 305.035 56.751 304.848 56.594 304.623 56.516 L 304.585 56.477 C 304.623 56.438 304.585 56.321 304.51 56.321 C 303.836 56.36 303.236 57.376 303.161 58.001 C 303.086 58.587 303.386 59.134 303.873 59.369 C 303.911 59.369 303.911 59.369 303.948 59.408 C 303.986 59.447 304.06 59.447 304.098 59.486 C 303.911 60.736 303.873 62.182 304.585 63.08 C 304.548 63.158 304.473 63.276 304.435 63.354 C 302.561 66.441 300.124 69.058 297.575 71.559 C 297.462 71.52 297.35 71.52 297.275 71.481 C 297.2 71.481 297.162 71.559 297.2 71.637 C 297.237 71.676 297.312 71.715 297.35 71.754 C 297.312 71.793 297.237 71.871 297.2 71.911 C 295.438 73.669 293.676 75.349 291.914 77.029 C 293.488 75.349 294.538 73.278 295.288 71.012 L 295.325 70.973 C 295.4 71.051 295.475 71.051 295.55 71.012 C 298.1 68.199 298.887 64.487 299.112 60.736 C 299.224 58.743 299.149 56.712 298.812 54.719 C 298.475 52.453 296.975 50.773 296.525 48.585 C 296.488 48.428 296.3 48.428 296.225 48.546 C 294.426 52.336 293.901 56.321 293.901 60.541 C 293.901 63.784 293.601 67.652 294.613 70.817 C 293.976 72.77 293.114 74.646 291.914 76.482 C 291.352 77.224 290.789 77.967 290.189 78.709 C 286.89 81.717 283.516 84.609 279.917 87.344 C 279.767 87.461 279.917 87.695 280.067 87.617 C 282.954 85.781 285.691 83.632 288.277 81.327 C 288.352 81.288 288.39 81.249 288.465 81.21 C 289.065 81.014 289.665 80.78 290.264 80.584 C 290.264 80.623 290.302 80.663 290.339 80.663 C 290.639 80.584 290.939 80.506 291.202 80.428 C 296.3 80.155 301.436 81.21 306.497 80.272 C 310.771 79.49 314.932 77.146 317.782 73.747 Z M 303.836 70.309 C 304.06 70.387 304.248 70.543 304.21 70.817 C 304.06 71.403 303.048 71.871 302.523 71.676 C 302.486 71.676 302.448 71.637 302.411 71.598 C 303.011 71.637 303.498 71.285 303.836 70.738 C 303.911 70.582 303.836 70.426 303.686 70.387 C 303.723 70.387 303.761 70.348 303.836 70.309 Z M 302.224 71.051 C 302.224 71.012 302.224 70.973 302.261 70.934 C 302.411 70.817 302.523 70.621 302.673 70.504 C 302.861 70.348 303.161 70.27 303.423 70.27 C 303.423 70.27 303.423 70.27 303.461 70.27 C 302.973 70.504 302.598 70.777 302.224 71.051 Z M 312.721 67.574 C 312.796 67.456 312.833 67.339 312.871 67.183 C 312.908 67.183 312.908 67.183 312.908 67.183 C 313.058 67.222 313.133 67.066 313.095 66.948 C 313.47 67.417 312.833 68.082 312.458 68.238 C 312.158 68.394 311.821 68.394 311.483 68.316 C 312.008 68.277 312.458 68.003 312.721 67.574 Z M 311.258 67.574 C 311.633 67.613 312.008 67.535 312.346 67.378 C 312.158 67.613 311.858 67.73 311.596 67.808 C 311.371 67.847 310.959 67.808 310.659 67.691 C 310.809 67.652 310.959 67.574 311.109 67.535 C 311.146 67.535 311.221 67.574 311.258 67.574 Z M 311.783 66.48 C 311.896 66.48 312.046 66.48 312.196 66.519 C 311.596 66.675 311.071 67.027 310.546 67.417 C 310.584 67.183 310.696 66.948 310.884 66.714 L 310.884 66.675 C 311.146 66.519 311.521 66.48 311.783 66.48 Z M 314.67 62.299 C 314.895 62.064 315.157 61.869 315.457 61.752 C 315.607 61.713 315.795 61.713 315.945 61.752 C 316.057 61.791 316.132 61.674 316.17 61.557 L 316.207 61.557 C 315.907 62.26 315.195 62.768 314.483 62.651 C 314.52 62.494 314.595 62.416 314.67 62.299 Z M 313.92 64.331 C 313.395 64.331 313.058 64.174 312.908 63.94 C 313.133 64.018 313.395 64.057 313.658 64.096 C 313.77 64.174 313.92 64.252 314.033 64.331 C 313.995 64.331 313.958 64.331 313.92 64.331 Z M 316.282 62.338 C 316.507 62.064 316.657 61.713 316.694 61.361 C 316.694 61.244 316.619 61.127 316.507 61.127 C 316.32 61.127 316.132 61.166 315.945 61.205 C 316.919 60.814 317.932 60.541 318.831 60.502 C 318.344 61.4 317.369 61.986 316.282 62.338 Z M 317.444 62.611 C 317.969 62.338 318.419 61.986 318.831 61.596 C 318.719 61.791 318.569 61.986 318.419 62.143 C 318.007 62.377 317.669 62.533 317.444 62.611 Z M 319.506 59.369 C 319.806 59.564 319.994 59.876 320.069 60.306 C 320.106 60.502 320.331 60.423 320.331 60.267 C 320.293 59.955 320.218 59.72 320.143 59.486 C 320.181 59.486 320.218 59.525 320.256 59.525 C 321.156 60.111 320.518 60.853 319.581 61.517 C 319.694 61.283 319.769 61.049 319.806 60.814 C 319.881 60.228 319.694 59.759 319.394 59.447 C 319.431 59.369 319.469 59.369 319.506 59.369 Z M 318.569 59.486 C 318.719 59.564 318.831 59.642 318.944 59.759 C 318.232 59.798 317.444 59.955 316.657 60.189 C 317.332 59.916 317.969 59.642 318.569 59.486 Z M 315.645 60.033 C 316.02 59.642 316.47 59.329 316.994 59.173 C 317.144 59.134 317.294 59.095 317.444 59.056 C 317.482 59.095 317.557 59.095 317.632 59.134 C 316.957 59.329 316.282 59.642 315.645 60.033 Z M 310.846 61.635 C 310.959 61.517 310.734 61.361 310.659 61.478 C 310.584 61.557 310.509 61.635 310.471 61.752 C 310.434 61.517 310.546 61.283 310.771 61.127 C 310.884 61.088 310.996 61.049 311.109 61.088 C 311.296 61.166 311.446 61.4 311.371 61.596 C 311.296 61.83 310.959 61.908 310.696 61.908 C 310.734 61.83 310.771 61.713 310.846 61.635 Z M 317.219 52.179 C 316.882 53.312 316.095 54.68 314.932 55.032 C 315.345 54.641 315.72 54.094 315.982 53.625 C 316.02 53.625 316.057 53.625 316.057 53.586 C 317.032 52.648 317.332 51.124 316.919 49.835 C 316.882 49.718 316.844 49.64 316.769 49.522 C 317.444 49.991 317.407 51.437 317.219 52.179 Z M 313.77 51.242 C 314.445 50.343 315.232 49.64 315.832 49.444 C 315.87 49.444 315.87 49.444 315.907 49.444 C 316.207 49.562 316.432 49.874 316.507 50.382 C 316.582 50.812 316.582 51.281 316.507 51.711 C 316.432 51.046 316.057 50.538 315.27 50.538 C 314.708 50.577 314.22 50.851 313.77 51.242 Z M 313.32 52.805 C 313.62 51.984 314.595 51.124 315.457 51.164 C 315.907 51.203 316.02 51.515 315.945 51.945 L 315.945 51.906 C 315.907 51.789 315.757 51.711 315.645 51.75 C 314.97 51.906 313.695 52.805 313.208 53.781 C 313.208 53.43 313.208 53.078 313.32 52.805 Z M 312.608 53.742 C 312.646 54.289 312.908 54.758 313.283 55.11 C 313.208 55.227 313.17 55.344 313.095 55.461 C 312.608 55.032 312.496 54.406 312.608 53.742 Z M 313.77 54.797 C 313.733 54.719 313.695 54.602 313.695 54.446 C 313.695 54.016 314.108 53.547 314.37 53.273 C 314.633 53 315.645 51.984 315.532 52.687 C 315.532 52.765 315.57 52.844 315.645 52.883 C 315.307 53.586 314.782 54.328 314.633 54.485 C 314.52 54.602 314.108 54.993 313.845 54.914 C 313.845 54.875 313.808 54.836 313.77 54.797 Z M 308.934 54.953 C 308.822 55.188 308.672 55.383 308.559 55.461 C 309.084 54.563 309.234 53.43 309.047 52.414 C 309.234 53.234 309.309 54.172 308.934 54.953 Z M 308.409 52.101 C 308.409 52.101 308.447 52.101 308.447 52.062 C 308.447 52.101 308.447 52.101 308.484 52.14 C 308.709 53.156 308.634 54.289 308.109 55.149 C 307.36 54.328 307.285 52.531 308.409 52.101 Z M 305.972 52.648 C 305.823 51.828 305.935 48.897 307.36 49.366 C 307.809 49.522 308.147 49.991 308.409 50.538 C 308.034 49.952 307.51 49.562 306.797 50.07 C 306.122 50.538 305.897 51.632 305.972 52.765 C 305.972 52.726 305.972 52.687 305.972 52.648 Z M 306.872 50.812 C 307.51 49.718 308.072 50.929 308.334 51.711 C 308.297 51.711 308.297 51.711 308.259 51.711 C 306.797 51.828 306.797 53.742 307.36 54.993 C 307.172 54.758 306.985 54.446 306.872 54.211 C 306.422 53.117 306.235 51.867 306.872 50.812 Z M 306.685 55.11 C 306.947 55.54 307.285 55.852 307.622 56.008 C 307.622 56.126 307.622 56.243 307.585 56.36 C 307.247 56.047 306.947 55.618 306.685 55.11 Z M 304.435 59.056 C 304.473 58.9 304.473 58.704 304.51 58.548 C 304.548 58.431 304.36 58.353 304.323 58.47 C 304.323 58.548 304.285 58.626 304.285 58.704 C 304.285 58.665 304.285 58.665 304.285 58.626 C 304.248 58.275 304.398 57.923 304.623 57.649 C 304.66 57.61 304.66 57.61 304.66 57.571 C 304.698 57.571 304.735 57.649 304.81 57.728 C 304.96 58.079 304.96 58.548 304.773 58.861 C 304.66 59.017 304.548 59.056 304.435 59.056 Z M 294.238 61.596 C 294.163 57.806 294.463 54.094 295.7 50.538 C 295.888 50.03 296.038 49.796 296.188 49.718 C 295.25 53 295.4 56.829 294.988 60.228 C 294.613 63.549 295.026 66.87 294.838 70.191 C 294.801 70.27 294.801 70.387 294.763 70.465 C 294.238 67.495 294.313 64.526 294.238 61.596 Z M 296.375 49.835 C 296.638 51.085 296.9 52.336 297.087 53.547 C 296.488 58.704 296.413 63.784 295.288 68.55 C 295.325 66.167 295.138 63.784 295.25 61.4 C 295.363 59.369 295.7 57.337 295.888 55.305 C 296.038 53.469 295.963 51.671 296.375 49.835 Z M 297.162 54.211 C 297.95 59.642 297.837 64.878 295.625 70.113 C 297.012 64.995 296.9 59.056 297.162 54.211 Z M 296.825 50.148 C 297.125 50.734 297.387 51.671 297.612 52.101 C 298.625 54.094 298.737 56.516 298.774 58.704 C 298.849 62.768 298.175 66.558 296 69.879 C 298.887 64.018 298.4 56.36 296.825 50.148 Z M 316.507 73.278 C 316.582 73.395 316.582 73.473 316.582 73.63 C 316.207 73.786 315.87 73.942 315.495 74.059 C 315.832 73.786 316.17 73.552 316.507 73.278 Z M 313.17 73.708 C 312.646 73.708 312.158 73.747 311.633 73.786 C 313.058 73.473 314.633 73.005 316.095 73.2 C 315.495 73.669 314.895 74.059 314.258 74.411 C 313.095 74.685 311.896 74.841 310.659 74.997 C 307.772 75.349 304.923 76.013 302.074 76.482 C 301.061 76.638 300.049 76.834 299.037 77.029 C 300.986 76.365 302.973 75.74 305.035 75.232 C 305.71 75.075 306.385 74.919 307.06 74.763 C 309.084 74.489 311.146 74.255 313.208 73.903 C 313.283 73.903 313.283 73.669 313.17 73.708 Z M 315.082 72.692 C 315.345 72.731 315.607 72.77 315.795 72.809 C 313.62 72.497 310.734 73.395 308.484 74.02 C 303.761 74.528 299.074 75.622 294.763 77.732 C 294.651 77.81 294.726 78.006 294.838 77.928 C 297.425 76.677 300.049 75.935 302.711 75.427 C 300.162 76.091 297.575 76.873 295.175 77.967 C 294.538 78.162 293.901 78.357 293.301 78.592 C 299.337 73.942 307.659 71.95 315.082 72.692 Z M 293.001 79.49 C 292.476 79.569 291.914 79.686 291.352 79.803 C 291.876 79.569 292.364 79.373 292.889 79.178 C 292.851 79.256 292.926 79.334 293.001 79.295 C 293.751 78.982 294.538 78.67 295.288 78.396 C 298.175 77.576 301.136 77.029 304.135 76.521 C 306.647 76.091 309.459 75.935 312.158 75.388 C 309.796 76.365 307.247 76.834 304.623 77.107 C 300.724 77.537 296.863 78.475 293.076 79.529 C 293.114 79.49 293.076 79.49 293.001 79.49 Z M 312.533 77.537 C 310.134 78.943 307.435 79.764 304.735 80.116 C 301.999 80.506 299.262 80.155 296.488 79.959 C 296.9 79.92 297.312 79.842 297.725 79.803 C 300.949 79.451 304.135 79.061 307.36 78.553 C 308.972 78.279 311.109 77.967 312.946 77.263 C 312.796 77.381 312.646 77.498 312.533 77.537 Z M 305.56 78.435 C 302.936 78.904 300.274 79.139 297.65 79.49 C 296.75 79.608 295.813 79.764 294.913 79.881 C 294.276 79.842 293.638 79.881 292.964 79.881 L 292.926 79.881 C 292.889 79.881 292.851 79.881 292.814 79.881 C 297.125 78.748 301.436 77.771 305.823 77.341 C 308.672 77.029 311.483 76.365 313.958 74.997 C 314.82 74.763 315.645 74.489 316.432 74.138 C 316.357 74.294 316.245 74.489 316.095 74.685 C 313.545 77.459 309.084 77.849 305.56 78.435 Z" style="fill: rgb(9, 129, 120);"/>
</svg>